<?xml version="1.0" encoding="iso-8859-1"?>
<!-- Uploaded to: SVG Repo, www.svgrepo.com, Generator: SVG Repo Mixer Tools -->
<svg height="800px" width="800px" version="1.1" id="Layer_1" xmlns="http://www.w3.org/2000/svg" xmlns:xlink="http://www.w3.org/1999/xlink" 
	 viewBox="0 0 512 512" xml:space="preserve">
<path style="fill:#79695A;" d="M256,512C114.837,512,0,397.157,0,256S114.837,0,256,0s256,114.843,256,256S397.163,512,256,512z"/>
<path style="fill:#6C5B52;" d="M512,256C512,114.843,397.163,0,256,0v512C397.163,512,512,397.157,512,256z"/>
<path style="fill:#FFE477;" d="M256,33.391C133.25,33.391,33.391,133.256,33.391,256S133.25,478.609,256,478.609
	S478.609,378.744,478.609,256S378.75,33.391,256,33.391z"/>
<path style="fill:#FFB655;" d="M478.609,256c0-122.744-99.859-222.609-222.609-222.609v445.217
	C378.75,478.609,478.609,378.744,478.609,256z"/>
<g>
	<path style="fill:#79695A;" d="M256,306.087c-27.619,0-50.087-22.468-50.087-50.087s22.468-50.087,50.087-50.087
		s50.087,22.468,50.087,50.087S283.619,306.087,256,306.087z"/>
	<path style="fill:#79695A;" d="M160.75,419.25c-57.652-33.755-93.641-95.983-93.924-162.413
		c-0.043-9.217,7.402-16.722,16.62-16.766l72.326-0.321c9.294-0.266,16.728,7.407,16.771,16.62
		c0.13,29.288,16.022,56.74,41.479,71.647c7.946,4.653,10.631,14.864,5.989,22.821l-36.402,62.418
		C178.916,421.275,168.659,423.889,160.75,419.25z"/>
</g>
<path style="fill:#6C5B52;" d="M328.391,413.255l-36.402-62.418c-4.641-7.956-1.957-18.168,5.989-22.821
	c25.456-14.908,41.347-42.359,41.479-71.647c0.043-9.196,7.511-16.62,16.696-16.62c0.022,0,0.043,0,0.076,0l72.326,0.321
	c9.217,0.043,16.663,7.549,16.62,16.766c-0.283,66.43-36.272,128.658-93.924,162.413C343.32,423.9,333.073,421.255,328.391,413.255z
	"/>
<path style="fill:#79695A;" d="M349.828,91.937c-28.604-16.473-61.217-24.71-93.828-24.71s-65.224,8.237-93.828,24.71
	c-8.015,4.563-10.798,14.692-6.234,22.706l35.951,62.776c4.563,8.014,14.805,10.685,22.817,6.122
	c12.576-7.235,26.935-10.797,41.294-10.797s28.718,3.562,41.294,10.797c8.014,4.675,18.254,1.892,22.817-6.122l35.951-62.776
	C360.626,106.63,357.843,96.501,349.828,91.937z"/>
<g>
	<path style="fill:#6C5B52;" d="M306.087,256c0-27.619-22.468-50.087-50.087-50.087v100.174
		C283.619,306.087,306.087,283.619,306.087,256z"/>
	<path style="fill:#6C5B52;" d="M356.063,114.643l-35.951,62.776c-4.563,8.014-14.805,10.797-22.817,6.122
		c-12.576-7.235-26.935-10.797-41.294-10.797V67.228c32.611,0,65.224,8.237,93.828,24.71
		C357.843,96.501,360.626,106.63,356.063,114.643z"/>
</g>
</svg>